<svg width="128" height="24" viewBox="0 0 128 24" fill="none" xmlns="http://www.w3.org/2000/svg">
<path fill-rule="evenodd" clip-rule="evenodd" d="M32.3361 9.00016H39.7506V19.5976H39.8044C42.7322 19.5976 45.1059 17.2929 45.1059 14.4497V9.00016H52.7266V4.60019H32.3361V9.00016Z" fill="#222222"/>
<path fill-rule="evenodd" clip-rule="evenodd" d="M67.8344 15.1999H62.7383C60.9608 15.1999 59.425 13.8766 59.342 12.1525C59.2538 10.3191 60.7644 8.79978 62.634 8.79978H67.7298C69.5073 8.79978 71.0433 10.1233 71.1261 11.8472C71.2143 13.681 69.7035 15.1999 67.8344 15.1999ZM69.0938 4.40002H61.3747C57.0699 4.40002 53.548 7.81993 53.548 11.9998C53.548 16.1797 57.0699 19.5998 61.3747 19.5998H69.0938C73.3984 19.5998 76.9205 16.1797 76.9205 11.9998C76.9205 7.81993 73.3984 4.40002 69.0938 4.40002Z" fill="#222222"/>
<path fill-rule="evenodd" clip-rule="evenodd" d="M118.329 15.1999H113.233C111.455 15.1999 109.919 13.8766 109.836 12.1525C109.748 10.3191 111.259 8.79978 113.128 8.79978H118.224C120.001 8.79978 121.538 10.1233 121.621 11.8472C121.709 13.681 120.198 15.1999 118.329 15.1999ZM119.588 4.40002H111.869C107.564 4.40002 104.042 7.81993 104.042 11.9998C104.042 16.1797 107.564 19.5998 111.869 19.5998H119.588C123.893 19.5998 127.415 16.1797 127.415 11.9998C127.415 7.81993 123.893 4.40002 119.588 4.40002Z" fill="#222222"/>
<path fill-rule="evenodd" clip-rule="evenodd" d="M95.4371 10.0144C95.4371 10.7764 94.7948 11.4003 94.0095 11.4003H86.7856V8.6005H94.0095C94.7948 8.6005 95.4371 9.2242 95.4371 9.98668V10.0144ZM100.861 10.242C100.861 8.74516 100.231 7.38511 99.2134 6.39686C98.1978 5.41089 96.7969 4.79922 95.2557 4.79922H80.8132V13.2514V15.7998V19.3992H86.5797V15.7998H92.6762L94.8151 19.3992H100.861L98.2673 14.8257C99.823 13.8554 100.861 12.1605 100.861 10.242Z" fill="#222222"/>
<path fill-rule="evenodd" clip-rule="evenodd" d="M11.7403 23.9219V17.9513C11.7403 17.887 11.6655 17.8504 11.6121 17.8888C8.56199 20.0861 5.09059 22.0894 1.27325 23.8515C1.19606 23.8873 1.22226 24 1.30787 24H11.6598C11.7043 24 11.7403 23.9648 11.7403 23.9219Z" fill="#EC0000"/>
<path fill-rule="evenodd" clip-rule="evenodd" d="M24.0967 0.123332C24.1344 0.0715461 24.096 0 24.031 0H8.3081C3.7198 0 0 3.58208 0 8.00067V15.4908C0 15.5444 0.0542661 15.5821 0.106427 15.5648C10.8319 12.0572 19.3721 6.58474 24.0967 0.123332Z" fill="#EC0000"/>
<path fill-rule="evenodd" clip-rule="evenodd" d="M16.0654 14.4647V23.9219C16.0654 23.9648 16.1015 23.9998 16.1459 23.9998H16.4083C20.9964 23.9998 24.716 20.418 24.716 15.9994V2.2037C24.716 2.1158 24.5894 2.0949 24.5597 2.17803C23.0063 6.53757 20.0963 10.6786 16.09 14.4086C16.0743 14.4231 16.0654 14.4433 16.0654 14.4647Z" fill="#EC0000"/>
</svg>
